@startuml

package edu.sru.cpsc.webshopping.service {

    class MessageService {
        - messageRepository : MessageSocialRepository
        - groupRepository : GroupRepository

        + getAllMessagesForUser(user : User) : List<SocialMessage>
        + getAllMessagesForUser(user1 : User, user2 : User) : List<SocialMessage>
        + getAllMessagesForGroup(groupId : Long) : List<SocialMessage>
        + getUnreadMessagesForUser(recipient : User) : List<SocialMessage>
        + markMessageAsRead(message : SocialMessage) : void
        + markMessageAsDelivered(message : SocialMessage) : void
        + saveMessage(message : SocialMessage) : SocialMessage
    }

    class MessageSocialRepository {
    }

    class GroupRepository {
    }
}

MessageService --> MessageSocialRepository : uses
MessageService --> GroupRepository : uses

@enduml
